<?xml version="1.0" encoding="UTF-8"?>
<svg preserveAspectRatio="xMidYMid" version="1.0" viewBox="0 0 200 200" xmlns="http://www.w3.org/2000/svg">
<defs>
<linearGradient id="c" x1="85" x2="83" y1="154.7" y2="61.7" gradientTransform="translate(1.19 .27)" gradientUnits="userSpaceOnUse">
<stop stop-color="#faca89" offset="0"/>
<stop stop-color="#fffdff" offset="1"/>
</linearGradient>
<linearGradient id="b" x1="113" x2="113" y1="164" y2="89" gradientTransform="translate(1.0308 .10851)" gradientUnits="userSpaceOnUse">
<stop stop-color="#d68a60" offset="0"/>
<stop stop-color="#fdd395" offset="1"/>
</linearGradient>
<linearGradient id="i" x1="64.542" x2="64.542" y1="164.72" y2="142.72" gradientTransform="translate(1.4575 .2805)" gradientUnits="userSpaceOnUse">
<stop stop-color="#d68a60" offset="0"/>
<stop stop-color="#d68a60" offset=".50129"/>
<stop stop-color="#fdd395" offset=".50129"/>
<stop stop-color="#fdd395" offset="1"/>
</linearGradient>
<linearGradient id="h" x1="64.542" x2="64.542" y1="164.72" y2="142.72" gradientTransform="matrix(-1 0 0 1 198.54 .2805)" gradientUnits="userSpaceOnUse">
<stop stop-color="#d68a60" offset="0"/>
<stop stop-color="#d68a60" offset=".50129"/>
<stop stop-color="#fdd395" offset=".50129"/>
<stop stop-color="#fdd395" offset="1"/>
</linearGradient>
<linearGradient id="g" x1="64.542" x2="64.542" y1="164.72" y2="142.72" gradientTransform="translate(1.4575 -39.719)" gradientUnits="userSpaceOnUse">
<stop stop-color="#f0b679" offset="0"/>
<stop stop-color="#f0b679" offset=".50079"/>
<stop stop-color="#fff4d8" offset=".50079"/>
<stop stop-color="#fff4d8" offset="1"/>
</linearGradient>
<linearGradient id="f" x1="64.543" x2="64.543" y1="164.72" y2="142.72" gradientTransform="matrix(-1 0 0 1 198.54 -39.719)" gradientUnits="userSpaceOnUse">
<stop stop-color="#f0b679" offset="0"/>
<stop stop-color="#f0b679" offset=".5005"/>
<stop stop-color="#fff4d8" offset=".5005"/>
<stop stop-color="#fff4d8" offset="1"/>
</linearGradient>
<linearGradient id="e" x1="64.542" x2="64.542" y1="164.72" y2="142.72" gradientTransform="translate(1.4575 -79.719)" gradientUnits="userSpaceOnUse">
<stop stop-color="#ffda9e" offset="0"/>
<stop stop-color="#ffda9e" offset=".5"/>
<stop stop-color="#fff" offset=".5"/>
<stop stop-color="#fff" offset="1"/>
</linearGradient>
<linearGradient id="d" x1="64.542" x2="64.542" y1="164.72" y2="142.72" gradientTransform="matrix(-1 0 0 1 198.54 -79.719)" gradientUnits="userSpaceOnUse">
<stop stop-color="#ffda9e" offset="0"/>
<stop stop-color="#ffda9e" offset=".5"/>
<stop stop-color="#fff" offset=".5"/>
<stop stop-color="#fff" offset="1"/>
</linearGradient>
<linearGradient id="a" x1="85" x2="115" y1="53" y2="53" gradientUnits="userSpaceOnUse">
<stop stop-color="#fdd395" offset="0"/>
<stop stop-color="#f0b679" offset="1"/>
</linearGradient>
</defs>
<path d="m92 20v28h-6c-5.7821-0.23821-4.8205-0.80955-6-2-0.99659-2.0345-4.1009-3.082-5-3-5-0.0669-7 3-7 7 0 6.802 5 9 6 9s1.6146-1 2-2c0.51672-1.3407 2-2 3-2h42c1 0 2.4833 0.65935 3 2 0.38542 1 1 2 2 2s6-2.198 6-9c0-4-2-7.0669-7-7-0.89912-0.08204-4.0034 0.9655-5 3-1.1795 1.1904-0.21793 1.7618-6 2h-6v-28h-8z" fill="#062b41"/>
<path d="m70 50c0-3 0-6 5-6 1 0 4 1 4 5h42c0-4 3-5 4-5 5 0 5 3 5 6 0 4-4 5-4 5h-52s-4-1-4-5z" fill="#fff4d8"/>
<path d="m70 50c0-3 2-5 5-5 1 0 3 1 3 5h44c0-4 2-5 3-5 3 0 5 2 5 5 0 4-4 5-4 5h-52s-4-1-4-5z" fill="url(#a)"/>
<path d="m102 170v-108h10v108l-12 23v-20z" fill="url(#b)"/>
<path d="m108 31-0.02 9.92-15.98 0.08z" fill="#f0b679"/>
<path d="m99.904 1.8496a11.65 11.65 0 0 0-11.578 11.697 11.65 11.65 0 0 0 11.674 11.604 11.65 11.65 0 0 0 11.627-11.65l-2e-3 -0.09375a11.65 11.65 0 0 0-11.721-11.557zm0.04297 6.8008a4.85 4.85 0 0 1 4.8789 4.8105v0.039062a4.85 4.85 0 0 1-4.8398 4.8496 4.85 4.85 0 0 1-4.8594-4.8301 4.85 4.85 0 0 1 4.8203-4.8691z" fill="#062b41" stroke-width=".99172"/>
<path d="m100 2c-6.3421 0.038723-11.549 5.2047-11.523 11.547 0.025838 6.3421 5.1813 11.466 11.523 11.453 6.3421-0.01293 11.477-5.1579 11.477-11.5v-0.09375c-0.05158-6.3421-5.1343-11.445-11.477-11.406zm-0.05469 6.5c2.7577-0.017328 5.0087 2.2014 5.0312 4.959v0.04102c1e-5 2.7576-2.2326 4.9946-4.9902 5-2.7576 0.0054-4.999-2.2229-5.0098-4.9805-0.01082-2.7569 2.2119-5.0023 4.9688-5.0195z" fill="#fff4d8" stroke-width="1.0141"/>
<path d="m100 20.164c2 0.19022 5.9748-2.0279 6.5612-4.9448 1.7004-0.04345 3.1404-0.07004 4.8226-0.2149-0.75342 5.5351-5.3838 9.996-11.384 9.996z" fill="#f0b679"/>
<path d="m88 62h10v108l2 3v20l-12-23z" fill="url(#c)"/>
<path d="m93.086 22.707c-0.58889-0.43982-2.086-1.7072-2.6714-2.818-0.8697-1.1482-1.664-3.312-1.8293-4.8106 1.5226-0.58738 2.1624-0.34856 3.7947-0.34856 2.2067 2.9487 6.905 4.1304 0.36 3.31-1.67 0.72-2.8454 1.3292-2.3254 1.8492 0.24 0.24 1.0154 0.94081 2.3254 0.42081 1.16-0.44 3.013-1.0249 4.1-0.8l3.16 0.6537v4.8363c-3.2875 0-5.7614-1.3701-6.914-2.2928z" fill="#fdd395"/>
<path d="m92 31h16l-16 10z" fill="#fff4d8"/>
<path d="m80 143h-42.563s-7.0913 4.3335-7.0913 11c0 6.7972 7.9737 11 7.9737 11h41.681z" fill="url(#i)"/>
<path d="m80 103h-42.563s-7.0913 4.3335-7.0913 11c0 6.7972 7.9737 11 7.9737 11h41.681z" fill="url(#g)"/>
<path d="m80 63h-42.563s-7.0913 4.3335-7.0913 11c0 6.7972 7.9737 11 7.9737 11h41.681z" fill="url(#e)"/>
<path d="m120 63h42.563s7.0914 4.3335 7.0914 11c0 6.7972-7.9737 11-7.9737 11h-41.681z" fill="url(#d)"/>
<path d="m120 103h42.563s7.0914 4.3335 7.0914 11c0 6.7972-7.9737 11-7.9737 11h-41.681z" fill="url(#f)"/>
<path d="m120 143h42.563s7.0914 4.3335 7.0914 11c0 6.7972-7.9737 11-7.9737 11h-41.681z" fill="url(#h)"/>
</svg>
